<svg width="126" height="23" viewBox="0 0 126 23" fill="none" xmlns="http://www.w3.org/2000/svg">
<path d="M23.2451 7.11222C23.9212 7.31748 24.5008 7.58312 24.9959 7.9212L24.1386 9.6599C23.6556 9.35804 23.1364 9.12863 22.5689 8.95959C22.0014 8.79055 21.4822 8.70603 20.9993 8.70603C20.5042 8.70603 20.1178 8.79055 19.8401 8.97167C19.5624 9.15278 19.4175 9.41841 19.4175 9.78064C19.4175 10.1429 19.5866 10.4206 19.9126 10.6138C20.2507 10.807 20.8061 11.0243 21.5788 11.2779C22.3154 11.4952 22.9311 11.7125 23.4141 11.9299C23.8971 12.1472 24.3076 12.4732 24.6578 12.9079C25.0079 13.3426 25.177 13.9221 25.177 14.6345C25.177 15.6971 24.7785 16.506 23.9816 17.0615C23.1847 17.6169 22.1946 17.8825 20.9993 17.8825C20.1782 17.8825 19.3813 17.7497 18.5965 17.4841C17.8116 17.2184 17.1596 16.8441 16.6284 16.3732L17.4615 14.6949C17.9324 15.1054 18.4999 15.4314 19.164 15.6729C19.8401 15.9144 20.4801 16.0472 21.1079 16.0472C21.6392 16.0472 22.0739 15.9506 22.3999 15.7574C22.7259 15.5642 22.8949 15.2745 22.8949 14.876C22.8949 14.5741 22.7983 14.3327 22.5931 14.1274C22.3878 13.9342 22.1463 13.7772 21.8686 13.6565C21.5788 13.5358 21.1683 13.4029 20.625 13.2339C19.9005 13.0166 19.3089 12.7992 18.8621 12.594C18.4033 12.3887 18.0169 12.0748 17.6909 11.6522C17.3649 11.2416 17.1958 10.6862 17.1958 9.98591C17.1958 8.94752 17.5822 8.16269 18.3429 7.61934C19.1036 7.076 20.0695 6.81036 21.2045 6.81036C21.8928 6.81036 22.5689 6.90696 23.2451 7.11222Z" fill="#0746A6"/>
<path d="M35.561 8.28343C36.4183 9.24937 36.8409 10.6138 36.8409 12.3766C36.8409 12.5577 36.8288 12.8475 36.8046 13.258H28.57C28.7632 14.1032 29.1616 14.7673 29.7532 15.2503C30.357 15.7333 31.0814 15.9748 31.9387 15.9748C32.5303 15.9748 33.0858 15.8661 33.617 15.6488C34.1483 15.4314 34.6071 15.1175 35.0056 14.707L36.2492 16.0351C35.7059 16.6268 35.0539 17.0735 34.2811 17.3875C33.5204 17.7014 32.6752 17.8704 31.7455 17.8704C30.6347 17.8704 29.6687 17.641 28.8235 17.1701C27.9904 16.7113 27.3384 16.0593 26.8675 15.2262C26.4087 14.393 26.1672 13.4392 26.1672 12.3645C26.1672 11.2899 26.3966 10.324 26.8675 9.49086C27.3263 8.65773 27.9783 8.00572 28.8235 7.52275C29.6567 7.05185 30.6105 6.81036 31.6851 6.81036C33.4238 6.82244 34.7037 7.31748 35.561 8.28343ZM33.8706 9.46671C33.3272 8.95959 32.6028 8.7181 31.7214 8.7181C30.8641 8.7181 30.1517 8.97167 29.5842 9.46671C29.0167 9.97383 28.6666 10.6621 28.5217 11.5314H34.7399C34.7158 10.6621 34.4139 9.97383 33.8706 9.46671Z" fill="#0746A6"/>
<path d="M62.5104 17.7979H60.168V15.9385C59.7696 16.5784 59.2504 17.0614 58.6104 17.3994C57.9584 17.7375 57.2098 17.8945 56.3525 17.8945C55.3141 17.8945 54.4086 17.6651 53.6237 17.1942C52.8389 16.7233 52.2352 16.0713 51.8005 15.2261C51.3658 14.3809 51.1485 13.4149 51.1485 12.3162C51.1485 11.2415 51.3658 10.2877 51.8005 9.45454C52.2352 8.62142 52.851 7.9694 53.6237 7.51058C54.4086 7.05176 55.3021 6.81027 56.3163 6.81027C57.1857 6.81027 57.9463 6.97931 58.5983 7.32947C59.2383 7.66755 59.7696 8.16259 60.1922 8.80253V2.62048L62.5346 5.10779V13.2217V17.7979H62.5104ZM58.9002 14.9484C59.516 14.2843 59.8299 13.4391 59.8299 12.4007C59.8299 11.3502 59.516 10.4929 58.9002 9.82885C58.2844 9.16476 57.4754 8.82668 56.4974 8.82668C55.5194 8.82668 54.7225 9.16476 54.0946 9.82885C53.4668 10.4929 53.1528 11.3502 53.1408 12.4007C53.1528 13.4391 53.4668 14.2963 54.0946 14.9484C54.7225 15.6124 55.5194 15.9385 56.4974 15.9385C57.4754 15.9385 58.2723 15.6124 58.9002 14.9484Z" fill="#0746A6"/>
<path d="M48.2509 7.94523C48.9754 8.69383 49.3255 9.72015 49.3255 11.0242V17.7979H46.971V11.6883C46.971 10.8672 46.7416 10.2273 46.2707 9.7443C45.8119 9.2734 45.172 9.03191 44.3509 9.03191C43.4816 9.04399 42.7692 9.3217 42.2138 9.86504C41.6583 10.4084 41.3444 11.1208 41.2599 11.9901V17.7858L38.9054 15.3106V11.0604C38.9054 10.1669 40.7165 6.76194 44.846 6.6412C46.1258 6.61705 47.5385 7.19662 48.2509 7.94523Z" fill="#0746A6"/>
<path d="M73.8679 8.05793V9.85488H70.0562V12.1147H73.759V13.9117H70.0562V17.5872H68.1775V8.05793H73.8679ZM83.2414 17.5872H81.213L79.2935 14.2792H77.8641V17.5872H75.9855V8.05793H79.7972C80.6776 8.05793 81.4263 8.36649 82.0434 8.98363C82.6606 9.60077 82.9691 10.345 82.9691 11.2162C82.9691 11.8061 82.8012 12.3552 82.4655 12.8634C82.1297 13.3626 81.685 13.7392 81.1313 13.9933L83.2414 17.5872ZM79.7972 9.81404H77.8641V12.632H79.7972C80.1512 12.632 80.4552 12.4959 80.7093 12.2236C80.9634 11.9423 81.0905 11.6065 81.0905 11.2162C81.0905 10.826 80.9634 10.4947 80.7093 10.2224C80.4552 9.95018 80.1512 9.81404 79.7972 9.81404ZM86.975 13.653V15.7903H90.9909V17.5872H85.0963V8.05793H90.9228V9.85488H86.975V11.8833H90.5825V13.653H86.975ZM93.0638 17.5872V8.05793H94.9425V17.5872H93.0638ZM102.029 12.4686H106.808V13.2038C106.808 14.5651 106.372 15.6678 105.501 16.5118C104.629 17.3558 103.504 17.7778 102.125 17.7778C100.654 17.7778 99.4337 17.3014 98.4626 16.3484C97.5006 15.3864 97.0196 14.2157 97.0196 12.8362C97.0196 11.4476 97.496 10.2724 98.449 9.31035C99.411 8.34834 100.6 7.86734 102.016 7.86734C102.896 7.86734 103.704 8.067 104.439 8.46633C105.174 8.86565 105.75 9.40564 106.168 10.0863L104.561 11.012C104.334 10.6218 103.99 10.3041 103.527 10.0591C103.064 9.81404 102.556 9.69152 102.002 9.69152C101.085 9.69152 100.337 9.99102 99.7559 10.59C99.175 11.1708 98.8846 11.9196 98.8846 12.8362C98.8846 13.7347 99.1796 14.4789 99.7695 15.0688C100.359 15.6496 101.149 15.94 102.138 15.94C102.855 15.94 103.454 15.7812 103.935 15.4636C104.416 15.1459 104.743 14.7012 104.915 14.1295H102.029V12.4686ZM114.311 11.8424V8.05793H116.176V17.5872H114.311V13.6394H110.771V17.5872H108.893V8.05793H110.771V11.8424H114.311ZM117.987 8.05793H124.998V9.85488H122.425V17.5872H120.546V9.85488H117.987V8.05793Z" fill="#0746A6"/>
</svg>
